<svg id="Camada_1" data-name="Camada 1" xmlns="http://www.w3.org/2000/svg" xmlns:xlink="http://www.w3.org/1999/xlink" viewBox="0 0 189 56"><defs><style>.cls-1{fill:#888;}.cls-10,.cls-2,.cls-9{fill:#fff;}.cls-3{fill:url(#linear-gradient);}.cls-4{fill:url(#linear-gradient-2);}.cls-5{fill:url(#linear-gradient-3);}.cls-6{fill:url(#linear-gradient-4);}.cls-7{opacity:0.2;}.cls-7,.cls-8,.cls-9{isolation:isolate;}.cls-8{opacity:0.12;}.cls-9{opacity:0.25;}.cls-10{stroke:#fff;stroke-miterlimit:10;stroke-width:0.2px;}</style><linearGradient id="linear-gradient" x1="30.52" y1="-3777.33" x2="7.02" y2="-3800.82" gradientTransform="matrix(1, 0, 0, -1, 0, -3765.13)" gradientUnits="userSpaceOnUse"><stop offset="0" stop-color="#0082ff"/><stop offset="0.01" stop-color="#0083ff"/><stop offset="0.26" stop-color="#00a0ff"/><stop offset="0.51" stop-color="#00b4ff"/><stop offset="0.76" stop-color="#00c1ff"/><stop offset="1" stop-color="#00c5ff"/></linearGradient><linearGradient id="linear-gradient-2" x1="47.37" y1="-3793.13" x2="13.49" y2="-3793.13" gradientTransform="matrix(1, 0, 0, -1, 0, -3765.13)" gradientUnits="userSpaceOnUse"><stop offset="0" stop-color="#ffc200"/><stop offset="0.41" stop-color="#ff9f00"/><stop offset="0.78" stop-color="#ff8700"/><stop offset="1" stop-color="#ff8000"/></linearGradient><linearGradient id="linear-gradient-3" x1="34.76" y1="-3796.35" x2="2.9" y2="-3828.21" gradientTransform="matrix(1, 0, 0, -1, 0, -3765.13)" gradientUnits="userSpaceOnUse"><stop offset="0" stop-color="#ff3a44"/><stop offset="1" stop-color="#a51162"/></linearGradient><linearGradient id="linear-gradient-4" x1="10.22" y1="-3765.38" x2="24.44" y2="-3779.61" gradientTransform="matrix(1, 0, 0, -1, 0, -3765.13)" gradientUnits="userSpaceOnUse"><stop offset="0" stop-color="#328271"/><stop offset="0.07" stop-color="#2d8971"/><stop offset="0.48" stop-color="#15b174"/><stop offset="0.8" stop-color="#06c975"/><stop offset="1" stop-color="#00d276"/></linearGradient></defs><title>download</title><rect width="189" height="56" rx="7" ry="7"/><path class="cls-1" d="M182,1.12A5.89,5.89,0,0,1,187.88,7V49A5.89,5.89,0,0,1,182,54.88H7A5.89,5.89,0,0,1,1.12,49V7A5.89,5.89,0,0,1,7,1.12H182M182,0H7A7,7,0,0,0,0,7V49a7,7,0,0,0,7,7H182a7,7,0,0,0,7-7V7a7,7,0,0,0-7-7Z"/><path class="cls-2" d="M95.39,30.45a6,6,0,1,0,6,6A5.88,5.88,0,0,0,95.39,30.45Zm0,9.57a3.62,3.62,0,1,1,3.36-3.61A3.45,3.45,0,0,1,95.39,40Zm-13-9.57a6,6,0,1,0,6,6A5.88,5.88,0,0,0,82.35,30.45Zm0,9.57a3.62,3.62,0,1,1,3.36-3.61A3.45,3.45,0,0,1,82.35,40ZM66.84,32.28v2.53h6A5.37,5.37,0,0,1,71.51,38a6.2,6.2,0,0,1-4.67,1.84,6.72,6.72,0,0,1,0-13.44A6.44,6.44,0,0,1,71.4,28.2l1.78-1.79a8.82,8.82,0,0,0-6.34-2.54,9.25,9.25,0,1,0,0,18.49,8.45,8.45,0,0,0,6.45-2.59,8.36,8.36,0,0,0,2.19-5.91,8.21,8.21,0,0,0-.14-1.58Zm63.43,2a5.53,5.53,0,0,0-5.1-3.79,5.66,5.66,0,0,0-5.61,6,5.82,5.82,0,0,0,5.91,6,5.91,5.91,0,0,0,5-2.64l-2-1.35A3.41,3.41,0,0,1,125.47,40a3,3,0,0,1-2.89-1.81l8-3.29Zm-8.12,2a3.27,3.27,0,0,1,3.12-3.48A2.32,2.32,0,0,1,127.48,34ZM115.68,42h2.62V24.5h-2.62Zm-4.29-10.22h-.09a4.1,4.1,0,0,0-3.13-1.33,6,6,0,0,0,0,11.91A4,4,0,0,0,111.3,41h.09v.85c0,2.28-1.21,3.5-3.18,3.5a3.3,3.3,0,0,1-3-2.12l-2.27.95a5.67,5.67,0,0,0,5.27,3.52c3.07,0,5.67-1.81,5.67-6.21V30.81h-2.49Zm-3,8.24a3.62,3.62,0,0,1,0-7.22,3.35,3.35,0,0,1,3.18,3.63A3.33,3.33,0,0,1,108.39,40ZM142.53,24.5h-6.26V42h2.61V35.37h3.65a5.44,5.44,0,1,0,0-10.87Zm.07,8.43h-3.72v-6h3.72a3,3,0,1,1,0,6Zm16.14-2.51a4.9,4.9,0,0,0-4.66,2.68l2.32,1a2.47,2.47,0,0,1,2.38-1.29A2.51,2.51,0,0,1,161.53,35v.18a5.74,5.74,0,0,0-2.72-.68c-2.5,0-5.05,1.37-5.05,3.94,0,2.34,2.05,3.85,4.35,3.85a3.68,3.68,0,0,0,3.33-1.71h.09V42h2.52V35.26C164.05,32.15,161.73,30.42,158.74,30.42ZM158.42,40c-.85,0-2-.43-2-1.48,0-1.35,1.48-1.87,2.76-1.87a4.65,4.65,0,0,1,2.39.58A3.17,3.17,0,0,1,158.42,40Zm14.82-9.21-3,7.59h-.09l-3.11-7.59h-2.82l4.66,10.61-2.65,5.9H169l7.18-16.51ZM149.71,42h2.61V24.5h-2.61Z"/><path class="cls-3" d="M14.61,10.55a2.79,2.79,0,0,0-.65,2v31a2.79,2.79,0,0,0,.65,2l.1.1L32.06,28.21V27.8L14.71,10.45Z"/><path class="cls-4" d="M37.84,34l-5.78-5.78V27.8L37.84,22l.13.08L44.82,26c2,1.11,2,2.93,0,4L38,33.92Z"/><path class="cls-5" d="M38,33.91,32.06,28,14.61,45.45c.64.68,1.71.77,2.91.09L38,33.91"/><path class="cls-6" d="M38,22.09,17.52,10.47c-1.2-.68-2.27-.6-2.91.08L32.06,28Z"/><path class="cls-7" d="M37.84,33.78,17.52,45.33a2.35,2.35,0,0,1-2.81,0h0l-.1.1h0l.1.1h0a2.34,2.34,0,0,0,2.81,0L38,33.91Z"/><path class="cls-8" d="M14.61,45.25a2.81,2.81,0,0,1-.65-2v.2a2.79,2.79,0,0,0,.65,2l.1-.1Z"/><path class="cls-8" d="M44.82,29.82l-7,4,.13.13L44.82,30a2.45,2.45,0,0,0,1.47-2h0A2.62,2.62,0,0,1,44.82,29.82Z"/><path class="cls-9" d="M17.52,10.67l27.3,15.51A2.62,2.62,0,0,1,46.29,28h0a2.46,2.46,0,0,0-1.47-2L17.52,10.47c-2-1.11-3.56-.19-3.56,2v.21C14,10.48,15.56,9.56,17.52,10.67Z"/><path class="cls-10" d="M57.87,18.2V9.8h2.57A4.19,4.19,0,0,1,63.54,11a4.13,4.13,0,0,1,1.16,3,4.13,4.13,0,0,1-1.16,3,4.19,4.19,0,0,1-3.1,1.17Zm1.08-1h1.49a3.15,3.15,0,0,0,2.31-.84A3.13,3.13,0,0,0,63.6,14a3.16,3.16,0,0,0-.85-2.33,3.15,3.15,0,0,0-2.31-.84H59Z"/><path class="cls-10" d="M66.22,18.2V9.8h1.07v8.4Z"/><path class="cls-10" d="M71.59,18.39a3.12,3.12,0,0,1-1.79-.6,2.76,2.76,0,0,1-1.15-1.68l1-.4a2.32,2.32,0,0,0,.72,1.17,1.82,1.82,0,0,0,1.23.48,2,2,0,0,0,1.2-.37,1.2,1.2,0,0,0,.5-1,1.28,1.28,0,0,0-.5-1.08,5,5,0,0,0-1.58-.71,4.39,4.39,0,0,1-1.69-.91A1.91,1.91,0,0,1,69,11.85a2.11,2.11,0,0,1,.71-1.57,3,3,0,0,1,3.6-.13,2.4,2.4,0,0,1,.87,1.16l-1,.41a1.53,1.53,0,0,0-.52-.74,1.7,1.7,0,0,0-1.08-.33,1.66,1.66,0,0,0-1.06.34,1.07,1.07,0,0,0-.44.86,1,1,0,0,0,.4.8,4.32,4.32,0,0,0,1.2.58,10.2,10.2,0,0,1,1,.38,5.08,5.08,0,0,1,.85.5,2,2,0,0,1,.64.78A2.38,2.38,0,0,1,74.39,16a2.28,2.28,0,0,1-.25,1.09,2,2,0,0,1-.67.76,3.39,3.39,0,0,1-.9.43A3.28,3.28,0,0,1,71.59,18.39Z"/><path class="cls-10" d="M77,18.2H75.94V9.8H78.8a2.68,2.68,0,0,1,1.85.71,2.44,2.44,0,0,1,0,3.58,2.68,2.68,0,0,1-1.85.71H77Zm0-4.44h1.81a1.42,1.42,0,0,0,1.09-.45,1.45,1.45,0,0,0,0-2,1.39,1.39,0,0,0-1.09-.46H77Z"/><path class="cls-10" d="M89.66,17.11a4.35,4.35,0,0,1-6.16,0A4.25,4.25,0,0,1,82.26,14a4.25,4.25,0,0,1,1.24-3.11,4.33,4.33,0,0,1,6.15,0A4.29,4.29,0,0,1,90.9,14,4.29,4.29,0,0,1,89.66,17.11Zm-5.36-.7a3.21,3.21,0,0,0,4.56,0A3.29,3.29,0,0,0,89.8,14a3.29,3.29,0,0,0-.94-2.41,3.24,3.24,0,0,0-4.56,0A3.29,3.29,0,0,0,83.37,14,3.29,3.29,0,0,0,84.3,16.41Z"/><path class="cls-10" d="M92.41,18.2V9.8h1.32l4.08,6.53h0l0-1.61V9.8h1.08v8.4H97.76l-4.27-6.85h0l0,1.62V18.2Z"/><path class="cls-10" d="M100.81,18.2V9.8h1.08v8.4Zm1-9.06h-.94l.61-1.5h1.18Z"/><path class="cls-10" d="M105.89,18.2l-3-8.4h1.19l2.3,6.82h0l2.39-6.82h1.2l-3,8.4Z"/><path class="cls-10" d="M116.19,10.83h-3.82V13.5h3.45v1h-3.45v2.67h3.82v1h-4.9V9.8h4.9Z"/><path class="cls-10" d="M117.88,18.2V9.8H119v7.37h3.64v1Z"/><path class="cls-10" d="M126.77,18.2V9.8h1.32l4.08,6.53h.05l-.05-1.61V9.8h1.08v8.4h-1.13l-4.27-6.85h0l0,1.62V18.2Z"/><path class="cls-10" d="M142,17.11a4.35,4.35,0,0,1-6.16,0A4.28,4.28,0,0,1,134.65,14a4.28,4.28,0,0,1,1.23-3.11,4.35,4.35,0,0,1,6.16,0A4.29,4.29,0,0,1,143.28,14,4.25,4.25,0,0,1,142,17.11Zm-5.36-.7a3.21,3.21,0,0,0,4.56,0,3.26,3.26,0,0,0,.94-2.41,3.26,3.26,0,0,0-.94-2.41,3.24,3.24,0,0,0-4.56,0,3.29,3.29,0,0,0-.93,2.41A3.29,3.29,0,0,0,136.68,16.41Z"/></svg>