<svg id="Camada_1" data-name="Camada 1" xmlns="http://www.w3.org/2000/svg" viewBox="0 0 190 56.3"><defs><style>.cls-1{fill:#a6a6a6;}.cls-2{fill:#fff;}</style></defs><title>download</title><path class="cls-1" d="M183.24,56.3H6.66A6.68,6.68,0,0,1,0,49.63v-43A6.66,6.66,0,0,1,6.66,0H183.24A6.75,6.75,0,0,1,190,6.65v43a6.77,6.77,0,0,1-6.76,6.67Z"/><path d="M188.64,49.64a5.39,5.39,0,0,1-5.4,5.39H6.66a5.4,5.4,0,0,1-5.41-5.39v-43a5.41,5.41,0,0,1,5.41-5.4H183.24a5.4,5.4,0,0,1,5.4,5.4v43Z"/><path class="cls-2" d="M42.4,27.84A8.16,8.16,0,0,1,46.29,21a8.36,8.36,0,0,0-6.58-3.56c-2.77-.29-5.46,1.66-6.87,1.66s-3.61-1.63-6-1.58A8.74,8.74,0,0,0,19.52,22c-3.19,5.53-.81,13.64,2.24,18.1,1.53,2.19,3.32,4.63,5.65,4.54s3.15-1.46,5.91-1.46,3.53,1.46,5.92,1.41,4-2.2,5.47-4.4a18.28,18.28,0,0,0,2.51-5.1A7.9,7.9,0,0,1,42.4,27.84Z"/><path class="cls-2" d="M37.9,14.5a8,8,0,0,0,1.84-5.75,8.16,8.16,0,0,0-5.29,2.74A7.62,7.62,0,0,0,32.56,17,6.76,6.76,0,0,0,37.9,14.5Z"/><path class="cls-2" d="M75.6,44.34H72.41l-1.75-5.5H64.57l-1.67,5.5H59.79l6-18.73h3.72Zm-5.47-7.81-1.59-4.89c-.16-.5-.48-1.68-.94-3.53h-.06c-.18.8-.48,2-.89,3.53L65.1,36.53Z"/><path class="cls-2" d="M91.11,37.42a7.7,7.7,0,0,1-1.86,5.45,5.48,5.48,0,0,1-4.14,1.77,4.16,4.16,0,0,1-3.84-1.91h0v7.11h-3V35.28c0-1.44,0-2.93-.11-4.45h2.64L80.91,33h0a5.36,5.36,0,0,1,8.55-.53A7.5,7.5,0,0,1,91.11,37.42Zm-3.06.11a5.59,5.59,0,0,0-.89-3.25,3.17,3.17,0,0,0-4.62-.6,3.42,3.42,0,0,0-1.19,1.93,4.09,4.09,0,0,0-.13.92v2.25a3.63,3.63,0,0,0,.9,2.49,3,3,0,0,0,2.35,1A3.07,3.07,0,0,0,87.11,41,5.75,5.75,0,0,0,88.05,37.53Z"/><path class="cls-2" d="M106.64,37.42a7.7,7.7,0,0,1-1.86,5.45,5.45,5.45,0,0,1-4.14,1.77,4.16,4.16,0,0,1-3.84-1.91h0v7.11h-3V35.28c0-1.44,0-2.93-.11-4.45h2.64L96.44,33h.06a5.35,5.35,0,0,1,8.54-.53A7.45,7.45,0,0,1,106.64,37.42Zm-3.06.11a5.52,5.52,0,0,0-.89-3.25,3.05,3.05,0,0,0-2.61-1.34,3.1,3.1,0,0,0-2,.74,3.41,3.41,0,0,0-1.18,1.93,4.2,4.2,0,0,0-.14.92v2.25a3.63,3.63,0,0,0,.9,2.49,3,3,0,0,0,2.35,1,3.07,3.07,0,0,0,2.64-1.3A5.75,5.75,0,0,0,103.58,37.53Z"/><path class="cls-2" d="M124,39.09A5,5,0,0,1,122.35,43a7.42,7.42,0,0,1-5.11,1.64,8.91,8.91,0,0,1-4.85-1.17l.69-2.5a8.22,8.22,0,0,0,4.34,1.19,4.09,4.09,0,0,0,2.64-.76,2.5,2.5,0,0,0,1-2.05,2.61,2.61,0,0,0-.78-1.92A7.3,7.3,0,0,0,117.64,36q-4.9-1.83-4.91-5.37a4.74,4.74,0,0,1,1.72-3.78A6.79,6.79,0,0,1,119,25.33a9.13,9.13,0,0,1,4.25.89l-.76,2.45A7.27,7.27,0,0,0,119,27.8a3.6,3.6,0,0,0-2.47.78,2.24,2.24,0,0,0-.75,1.7,2.26,2.26,0,0,0,.86,1.83,9.66,9.66,0,0,0,2.72,1.45,9.27,9.27,0,0,1,3.56,2.28A4.76,4.76,0,0,1,124,39.09Z"/><path class="cls-2" d="M133.93,33.08h-3.31v6.56c0,1.67.58,2.5,1.75,2.5a5.1,5.1,0,0,0,1.34-.14l.08,2.28a6.58,6.58,0,0,1-2.34.34,3.58,3.58,0,0,1-2.77-1.09,5.28,5.28,0,0,1-1-3.64V33.08h-2V30.83h2V28.36l2.94-.89v3.36h3.31Z"/><path class="cls-2" d="M148.85,37.47a7.41,7.41,0,0,1-1.78,5.12,6.34,6.34,0,0,1-4.94,2,6,6,0,0,1-4.74-2,7.15,7.15,0,0,1-1.77-5,7.34,7.34,0,0,1,1.82-5.14,6.3,6.3,0,0,1,4.91-2,6.16,6.16,0,0,1,4.78,2A7.11,7.11,0,0,1,148.85,37.47Zm-3.11.1a6.06,6.06,0,0,0-.81-3.2,3,3,0,0,0-2.69-1.62,3,3,0,0,0-2.75,1.62,6.18,6.18,0,0,0-.81,3.26,6.06,6.06,0,0,0,.81,3.2,3,3,0,0,0,2.72,1.62,3,3,0,0,0,2.69-1.64A6.06,6.06,0,0,0,145.74,37.57Z"/><path class="cls-2" d="M158.61,33.47a5.8,5.8,0,0,0-1-.08,2.84,2.84,0,0,0-2.45,1.2,4.47,4.47,0,0,0-.75,2.66v7.09h-3l0-9.25c0-1.56,0-3-.11-4.26H154l.11,2.59h.08a4.63,4.63,0,0,1,1.51-2.14,3.62,3.62,0,0,1,2.16-.72,5.81,5.81,0,0,1,.76.05Z"/><path class="cls-2" d="M172,37a6.67,6.67,0,0,1-.11,1.36h-9a3.94,3.94,0,0,0,1.31,3.06,4.45,4.45,0,0,0,2.94.94,9.83,9.83,0,0,0,3.64-.64l.47,2.08a11.15,11.15,0,0,1-4.52.84,6.58,6.58,0,0,1-4.94-1.85,6.83,6.83,0,0,1-1.79-5,7.78,7.78,0,0,1,1.67-5.09,5.75,5.75,0,0,1,4.72-2.16,5,5,0,0,1,4.42,2.16A7.27,7.27,0,0,1,172,37Zm-2.86-.78a4.06,4.06,0,0,0-.58-2.31,2.63,2.63,0,0,0-2.39-1.25,2.85,2.85,0,0,0-2.39,1.23,4.41,4.41,0,0,0-.89,2.33Z"/><path class="cls-2" d="M69.14,14.09a4.64,4.64,0,0,1-1.49,3.74A6,6,0,0,1,63.73,19a18.88,18.88,0,0,1-2.16-.11v-9a15.61,15.61,0,0,1,2.54-.19,5.5,5.5,0,0,1,3.65,1A4.26,4.26,0,0,1,69.14,14.09Zm-1.56,0a3.38,3.38,0,0,0-.85-2.47,3.34,3.34,0,0,0-2.5-.86,6.59,6.59,0,0,0-1.18.09v6.88a7.39,7.39,0,0,0,1,0,3.5,3.5,0,0,0,2.62-.94A3.78,3.78,0,0,0,67.58,14.13Z"/><path class="cls-2" d="M76.78,15.27a3.13,3.13,0,0,1-.06.67H72.3a1.91,1.91,0,0,0,.64,1.5,2.22,2.22,0,0,0,1.45.47,5.09,5.09,0,0,0,1.79-.31l.23,1a5.62,5.62,0,0,1-2.23.41,3.21,3.21,0,0,1-2.42-.91,3.34,3.34,0,0,1-.88-2.44,3.75,3.75,0,0,1,.82-2.49A2.83,2.83,0,0,1,74,12.12a2.47,2.47,0,0,1,2.17,1.07A3.57,3.57,0,0,1,76.78,15.27Zm-1.41-.38a2,2,0,0,0-.28-1.13,1.3,1.3,0,0,0-1.18-.62,1.38,1.38,0,0,0-1.17.61,2.17,2.17,0,0,0-.44,1.14Z"/><path class="cls-2" d="M83,17a1.8,1.8,0,0,1-.69,1.48,2.83,2.83,0,0,1-1.88.56,3.79,3.79,0,0,1-1.92-.45l.31-1.09a3.06,3.06,0,0,0,1.62.46c.76,0,1.14-.27,1.14-.83a.85.85,0,0,0-.25-.61,2.69,2.69,0,0,0-.87-.47c-1.19-.43-1.78-1.07-1.78-1.91a1.82,1.82,0,0,1,.66-1.43,2.53,2.53,0,0,1,1.73-.58,3.27,3.27,0,0,1,1.68.41l-.31,1.06a2.57,2.57,0,0,0-1.35-.39,1.13,1.13,0,0,0-.73.22.71.71,0,0,0-.26.56.69.69,0,0,0,.27.56,3.57,3.57,0,0,0,.91.45C82.4,15.43,83,16.1,83,17Z"/><path class="cls-2" d="M89.91,12.45l-.28,1.12a3,3,0,0,0-1.29-.28,1.93,1.93,0,0,0-1.53.65,2.42,2.42,0,0,0-.57,1.65,2.31,2.31,0,0,0,.59,1.66,2,2,0,0,0,1.51.62,3.49,3.49,0,0,0,1.34-.27l.2,1.1a4.22,4.22,0,0,1-1.82.34,3.21,3.21,0,0,1-2.42-.92,3.36,3.36,0,0,1-.9-2.46,3.37,3.37,0,0,1,3.58-3.53A3.7,3.7,0,0,1,89.91,12.45Z"/><path class="cls-2" d="M96.9,18.91H95.58l-.11-.77h0a2.28,2.28,0,0,1-1.94.92,2,2,0,0,1-1.52-.6,1.94,1.94,0,0,1-.52-1.36,2.06,2.06,0,0,1,1-1.85,5.26,5.26,0,0,1,2.86-.63V14.5c0-.88-.46-1.31-1.37-1.31a3,3,0,0,0-1.73.49l-.3-1a4.23,4.23,0,0,1,2.27-.58c1.74,0,2.61.92,2.61,2.75v2.44A11.09,11.09,0,0,0,96.9,18.91Zm-1.53-2.28v-1c-1.63,0-2.44.42-2.44,1.34a1,1,0,0,0,.28.78,1,1,0,0,0,.72.26,1.47,1.47,0,0,0,.91-.31,1.31,1.31,0,0,0,.51-.78A2,2,0,0,0,95.37,16.63Z"/><path class="cls-2" d="M102.89,13.57a2.25,2.25,0,0,0-.46,0,1.38,1.38,0,0,0-1.2.58,2.2,2.2,0,0,0-.37,1.31v3.49H99.38l0-4.55c0-.76,0-1.46-.05-2.09h1.28l.05,1.27h0a2.24,2.24,0,0,1,.74-1,1.77,1.77,0,0,1,1.07-.36,2,2,0,0,1,.36,0Z"/><path class="cls-2" d="M108.28,13.57a2.19,2.19,0,0,0-.46,0,1.38,1.38,0,0,0-1.2.58,2.2,2.2,0,0,0-.37,1.31v3.49h-1.47V14.36c0-.76,0-1.46-.05-2.09H106l0,1.27h.05a2.15,2.15,0,0,1,.73-1,1.77,1.77,0,0,1,1.07-.36,1.94,1.94,0,0,1,.36,0Z"/><path class="cls-2" d="M115.63,15.27a4.08,4.08,0,0,1,0,.67h-4.43a1.92,1.92,0,0,0,.65,1.5,2.17,2.17,0,0,0,1.44.47A5.09,5.09,0,0,0,115,17.6l.23,1A5.6,5.6,0,0,1,113,19a3.22,3.22,0,0,1-2.43-.91,3.38,3.38,0,0,1-.88-2.44,3.81,3.81,0,0,1,.82-2.49,2.84,2.84,0,0,1,2.32-1.07A2.47,2.47,0,0,1,115,13.19,3.57,3.57,0,0,1,115.63,15.27Zm-1.4-.38a2.09,2.09,0,0,0-.29-1.13,1.3,1.3,0,0,0-1.17-.62,1.39,1.39,0,0,0-1.18.61,2.17,2.17,0,0,0-.44,1.14Z"/><path class="cls-2" d="M123.59,12.27c0,.54,0,1.17,0,1.89V18a3.88,3.88,0,0,1-1,3,3.52,3.52,0,0,1-2.46.8,4.24,4.24,0,0,1-2.22-.52l.34-1.14a3.51,3.51,0,0,0,1.88.51q1.95,0,1.95-2.1v-.65h0a2.11,2.11,0,0,1-2,1,2.48,2.48,0,0,1-2-.91,3.49,3.49,0,0,1-.77-2.32,3.65,3.65,0,0,1,.9-2.58,2.64,2.64,0,0,1,2-.92,2.06,2.06,0,0,1,1.94,1.06h0l.05-.92Zm-1.53,3.8V14.89a1.66,1.66,0,0,0-.42-1.14,1.38,1.38,0,0,0-1.1-.48,1.5,1.5,0,0,0-1.24.63,2.59,2.59,0,0,0-.49,1.67,2.48,2.48,0,0,0,.45,1.55,1.49,1.49,0,0,0,1.28.64,1.45,1.45,0,0,0,.88-.29,1.65,1.65,0,0,0,.56-.8A2.13,2.13,0,0,0,122.06,16.07Z"/><path class="cls-2" d="M131.12,18.91H129.8l-.11-.77h0a2.27,2.27,0,0,1-1.94.92,2,2,0,0,1-1.51-.6,1.9,1.9,0,0,1-.52-1.36,2,2,0,0,1,1-1.85,5.29,5.29,0,0,1,2.87-.63V14.5c0-.88-.46-1.31-1.38-1.31a3,3,0,0,0-1.73.49l-.3-1a4.29,4.29,0,0,1,2.28-.58c1.73,0,2.6.92,2.6,2.75v2.44A11.09,11.09,0,0,0,131.12,18.91Zm-1.53-2.28v-1c-1.62,0-2.44.42-2.44,1.34a1,1,0,0,0,.29.78,1,1,0,0,0,.72.26,1.47,1.47,0,0,0,.9-.31,1.23,1.23,0,0,0,.51-.78A1.06,1.06,0,0,0,129.59,16.63Z"/><path class="cls-2" d="M137.12,13.57a2.35,2.35,0,0,0-.47,0,1.38,1.38,0,0,0-1.2.58,2.27,2.27,0,0,0-.37,1.31v3.49h-1.47V14.36c0-.76,0-1.46-.05-2.09h1.28l.05,1.27h0a2.22,2.22,0,0,1,.73-1,1.79,1.79,0,0,1,1.07-.36,2.13,2.13,0,0,1,.37,0Z"/><path class="cls-2" d="M148.75,18.91h-1.48v-3.8c0-1.17-.44-1.76-1.33-1.76a1.34,1.34,0,0,0-1.07.48,1.73,1.73,0,0,0-.41,1.14v3.94H143V14.17c0-.58,0-1.22-.06-1.9h1.3l.07,1h0a2.15,2.15,0,0,1,.76-.8,2.49,2.49,0,0,1,1.34-.38,2.08,2.08,0,0,1,1.54.61,2.9,2.9,0,0,1,.77,2.19Z"/><path class="cls-2" d="M156.31,18.91H155l-.11-.77h0a2.28,2.28,0,0,1-1.94.92,2,2,0,0,1-1.52-.6,1.94,1.94,0,0,1-.52-1.36,2.06,2.06,0,0,1,1-1.85,5.26,5.26,0,0,1,2.86-.63V14.5c0-.88-.46-1.31-1.37-1.31a3,3,0,0,0-1.73.49l-.3-1a4.23,4.23,0,0,1,2.27-.58c1.74,0,2.61.92,2.61,2.75v2.44A11.09,11.09,0,0,0,156.31,18.91Zm-1.53-2.28v-1c-1.63,0-2.44.42-2.44,1.34a1,1,0,0,0,.28.78,1.06,1.06,0,0,0,.72.26,1.47,1.47,0,0,0,.91-.31,1.31,1.31,0,0,0,.51-.78A2,2,0,0,0,154.78,16.63Z"/></svg>