<?xml version="1.0" encoding="UTF-8" standalone="no"?>
<svg
   xmlns:dc="http://purl.org/dc/elements/1.1/"
   xmlns:cc="http://creativecommons.org/ns#"
   xmlns:rdf="http://www.w3.org/1999/02/22-rdf-syntax-ns#"
   xmlns:svg="http://www.w3.org/2000/svg"
   xmlns="http://www.w3.org/2000/svg"
   xmlns:sodipodi="http://sodipodi.sourceforge.net/DTD/sodipodi-0.dtd"
   xmlns:inkscape="http://www.inkscape.org/namespaces/inkscape"
   id="svg"
   version="1.1"
   width="400"
   height="148.95729890764648"
   viewBox="0, 0, 400,148.95729890764648"
   sodipodi:docname="image2vector.svg"
   inkscape:version="0.92.3 (2405546, 2018-03-11)">
  <metadata
     id="metadata13">
    <rdf:RDF>
      <cc:Work
         rdf:about="">
        <dc:format>image/svg+xml</dc:format>
        <dc:type
           rdf:resource="http://purl.org/dc/dcmitype/StillImage" />
      </cc:Work>
    </rdf:RDF>
  </metadata>
  <defs
     id="defs11" />
  <sodipodi:namedview
     pagecolor="#ffffff"
     bordercolor="#666666"
     borderopacity="1"
     objecttolerance="10"
     gridtolerance="10"
     guidetolerance="10"
     inkscape:pageopacity="0"
     inkscape:pageshadow="2"
     inkscape:window-width="1920"
     inkscape:window-height="1130"
     id="namedview9"
     showgrid="false"
     inkscape:zoom="1.0375"
     inkscape:cx="98.795181"
     inkscape:cy="74.478653"
     inkscape:window-x="0"
     inkscape:window-y="0"
     inkscape:window-maximized="1"
     inkscape:current-layer="svg" />
  <g
     id="svgg">
    <path
       id="path0"
       d="M191.667 2.444 C 170.204 3.930,150.162 10.787,128.000 24.224 C 116.054 31.467,105.640 39.257,90.759 52.082 C 69.767 70.172,48.294 74.225,23.583 64.759 C 21.802 64.076,28.109 67.432,31.083 68.750 C 54.210 78.992,80.356 74.625,108.238 55.865 C 126.362 43.669,130.438 41.085,139.833 35.827 C 186.918 9.479,224.541 10.145,263.691 38.021 C 273.186 44.782,284.047 51.606,293.417 56.698 C 296.338 58.286,302.111 61.242,301.917 61.051 C 301.825 60.961,300.962 60.259,300.000 59.492 C 292.811 53.764,287.782 49.229,278.667 40.254 C 266.579 28.352,258.137 21.778,246.833 15.466 C 229.718 5.908,209.737 1.192,191.667 2.444 M199.000 56.618 C 185.615 58.946,180.565 74.130,190.111 83.344 C 199.972 92.861,216.379 85.886,216.400 72.167 C 216.415 62.858,207.732 55.099,199.000 56.618 M220.000 71.917 L 220.000 87.000 221.917 87.000 L 223.833 87.000 223.833 71.917 L 223.833 56.833 221.917 56.833 L 220.000 56.833 220.000 71.917 M228.833 71.917 L 228.833 87.000 230.741 87.000 L 232.649 87.000 232.700 80.375 C 232.755 73.092,232.739 73.212,233.857 71.561 C 235.696 68.842,240.292 68.887,241.943 71.639 C 242.741 72.969,242.833 73.925,242.833 80.805 L 242.833 87.000 244.681 87.000 L 246.528 87.000 246.456 80.042 C 246.378 72.645,246.355 72.411,245.484 70.379 C 243.546 65.854,237.702 64.499,233.482 67.597 L 232.667 68.195 232.667 62.514 L 232.667 56.833 230.750 56.833 L 228.833 56.833 228.833 71.917 M117.500 72.148 L 117.500 87.000 119.416 87.000 L 121.331 87.000 121.374 73.875 L 121.417 60.750 123.833 60.774 C 131.452 60.849,136.046 65.096,136.067 72.083 C 136.088 78.708,131.744 83.005,124.585 83.443 L 122.833 83.551 122.833 85.301 L 122.833 87.051 124.729 86.943 C 128.129 86.748,130.799 86.057,132.827 84.845 C 143.260 78.612,142.371 63.352,131.300 58.641 C 128.958 57.645,127.742 57.473,122.375 57.381 L 117.500 57.297 117.500 72.148 M258.518 66.180 C 250.371 67.780,247.337 78.358,253.312 84.332 C 259.615 90.635,270.184 86.565,270.932 77.547 C 271.513 70.543,265.295 64.849,258.518 66.180 M151.237 66.647 C 149.714 67.083,148.645 67.860,147.775 69.162 C 147.509 69.561,147.500 69.527,147.500 68.120 L 147.500 66.667 145.833 66.667 L 144.167 66.667 144.167 76.833 L 144.167 87.000 145.989 87.000 L 147.812 87.000 147.868 80.708 C 147.921 74.658,147.938 74.381,148.295 73.491 C 149.241 71.133,150.697 70.166,153.840 69.808 L 155.500 69.620 155.500 67.976 L 155.500 66.333 153.875 66.345 C 152.864 66.353,151.867 66.467,151.237 66.647 M278.580 66.576 C 272.606 67.662,272.112 73.878,277.768 76.805 C 277.962 76.905,279.349 77.484,280.852 78.091 C 284.935 79.742,285.667 80.257,285.667 81.485 C 285.667 83.268,284.902 83.492,278.792 83.496 L 273.833 83.500 273.833 85.266 L 273.833 87.033 278.875 86.958 C 284.186 86.880,284.750 86.809,286.678 85.979 C 288.864 85.039,290.027 82.244,289.255 79.788 C 288.612 77.745,287.100 76.675,281.873 74.563 C 277.553 72.817,276.624 71.800,278.049 70.375 L 278.507 69.917 283.504 69.868 L 288.500 69.819 288.500 68.076 L 288.500 66.333 284.125 66.348 C 281.367 66.358,279.318 66.442,278.580 66.576 M263.326 70.072 C 269.925 73.471,267.378 84.265,260.087 83.797 C 253.754 83.391,251.658 74.304,257.018 70.488 C 258.592 69.367,261.575 69.170,263.326 70.072 M338.250 74.774 C 321.214 76.534,307.136 82.307,288.333 95.243 C 243.328 126.206,212.177 136.442,180.567 130.654 C 165.640 127.920,152.169 121.778,135.583 110.143 C 123.472 101.646,113.117 95.303,102.250 89.722 C 100.050 88.593,98.223 87.668,98.189 87.668 C 98.156 87.667,98.943 88.317,99.939 89.111 C 107.106 94.829,112.259 99.464,120.751 107.830 C 130.588 117.522,136.725 122.701,144.583 127.945 C 193.033 160.273,247.515 150.319,307.583 98.164 C 329.766 78.904,351.249 74.248,375.262 83.494 C 377.463 84.342,375.943 83.394,371.667 81.254 C 365.344 78.089,359.226 76.194,351.917 75.137 C 349.673 74.813,340.286 74.563,338.250 74.774 "
       stroke="none"
       fill="#1c1c15"
       fill-rule="evenodd" />
    <path
       id="path1"
       d="M193.083 0.111 C 166.194 1.765,140.662 11.691,113.583 31.016 C 106.058 36.387,98.646 42.283,89.928 49.836 C 70.789 66.415,51.437 71.231,30.167 64.709 C 23.649 62.711,17.636 59.827,8.917 54.518 C 6.992 53.346,4.704 51.953,3.833 51.423 C 1.629 50.081,1.057 49.754,1.250 49.945 C 1.342 50.035,2.992 51.490,4.917 53.177 C 6.842 54.865,8.604 56.421,8.833 56.636 C 20.246 67.337,34.542 74.212,49.167 76.032 C 51.526 76.326,61.622 76.327,64.000 76.034 C 69.754 75.326,76.470 73.796,81.320 72.090 C 85.054 70.776,86.262 70.309,89.094 69.082 C 96.716 65.780,104.490 61.331,112.667 55.591 C 119.842 50.554,133.592 41.808,138.750 39.000 C 139.208 38.750,140.221 38.189,141.000 37.752 C 144.735 35.656,154.862 30.500,155.243 30.500 C 155.279 30.500,155.858 30.247,156.529 29.939 C 185.391 16.664,213.606 15.334,238.250 26.086 C 238.525 26.206,239.387 26.582,240.167 26.922 C 247.246 30.007,254.141 34.068,263.904 40.903 C 276.983 50.059,288.128 56.747,300.583 62.913 C 306.277 65.731,308.197 66.602,320.333 71.863 C 321.219 72.247,321.115 72.133,319.667 71.135 C 315.280 68.111,309.266 63.798,306.623 61.781 C 305.684 61.065,304.504 60.170,304.000 59.792 C 302.263 58.489,296.747 53.967,294.503 52.006 C 289.031 47.224,287.122 45.442,280.917 39.325 C 270.325 28.881,264.789 24.228,256.250 18.587 C 240.316 8.063,224.161 2.149,206.833 0.498 C 202.176 0.054,196.577 -0.104,193.083 0.111 M204.779 2.584 C 206.505 2.722,208.742 2.944,209.750 3.078 C 210.758 3.211,211.883 3.358,212.250 3.403 C 212.980 3.494,215.657 3.988,217.750 4.418 C 220.599 5.005,225.019 6.221,228.473 7.370 C 230.459 8.031,232.121 8.579,232.167 8.589 C 232.213 8.599,232.438 8.692,232.667 8.797 C 232.896 8.901,234.283 9.484,235.750 10.091 C 241.897 12.638,249.259 16.578,254.617 20.191 C 255.278 20.636,255.890 21.000,255.979 21.000 C 256.067 21.000,256.164 21.057,256.194 21.127 C 256.225 21.197,257.037 21.810,258.000 22.490 C 265.220 27.587,269.916 31.641,279.336 40.908 C 287.885 49.319,292.963 53.886,300.000 59.492 C 300.962 60.259,301.825 60.954,301.917 61.036 C 302.514 61.573,294.409 57.306,289.147 54.314 C 287.715 53.499,286.465 52.833,286.369 52.833 C 286.273 52.833,286.169 52.773,286.139 52.698 C 286.108 52.624,285.246 52.067,284.223 51.461 C 278.730 48.204,269.588 42.220,263.691 38.021 C 260.559 35.791,258.453 34.385,255.500 32.554 C 251.960 30.359,246.003 27.064,245.997 27.299 C 245.996 27.364,245.940 27.333,245.872 27.231 C 245.109 26.077,232.521 21.262,225.167 19.313 C 225.121 19.301,225.008 19.266,224.917 19.236 C 224.578 19.125,221.789 18.497,221.278 18.417 C 220.988 18.371,220.188 18.219,219.500 18.079 C 193.107 12.707,163.405 20.759,127.812 42.936 C 121.631 46.787,109.022 55.207,108.542 55.805 C 108.427 55.947,108.333 56.015,108.333 55.955 C 108.333 55.895,107.265 56.543,105.958 57.395 C 92.497 66.175,77.007 72.351,65.333 73.594 C 65.012 73.628,64.001 73.735,63.086 73.833 C 57.409 74.438,50.136 74.114,44.560 73.007 C 43.656 72.828,42.729 72.645,42.500 72.600 C 38.680 71.851,31.177 69.029,26.833 66.707 C 24.976 65.715,23.025 64.545,23.583 64.759 C 36.343 69.646,49.026 71.052,58.854 68.668 C 59.255 68.570,59.794 68.458,60.051 68.419 C 68.505 67.120,81.071 60.434,90.757 52.082 C 95.946 47.607,100.306 43.960,103.075 41.776 C 104.721 40.478,106.243 39.248,106.458 39.042 C 106.673 38.835,106.885 38.667,106.929 38.667 C 106.974 38.667,108.189 37.781,109.630 36.698 C 117.913 30.472,127.202 24.429,135.417 19.919 C 136.058 19.567,136.629 19.210,136.685 19.125 C 136.741 19.041,136.816 18.990,136.852 19.014 C 136.888 19.037,138.792 18.114,141.083 16.964 C 152.942 11.011,167.768 5.736,176.417 4.392 C 176.692 4.350,177.684 4.170,178.623 3.993 C 181.027 3.539,185.997 2.893,188.750 2.677 C 190.033 2.576,191.383 2.470,191.750 2.441 C 193.897 2.274,202.008 2.363,204.779 2.584 M194.991 32.171 C 170.844 35.689,154.974 59.133,160.695 82.833 C 163.307 93.658,169.690 102.243,179.930 108.705 C 182.178 110.123,186.742 112.051,189.833 112.888 C 213.579 119.315,237.638 104.008,241.655 79.917 C 242.021 77.721,242.424 73.202,242.268 73.046 C 242.214 72.992,242.242 72.860,242.331 72.752 C 242.442 72.619,242.322 72.271,241.955 71.660 C 240.292 68.887,235.704 68.831,233.857 71.561 C 232.739 73.212,232.755 73.092,232.700 80.375 L 232.649 87.000 230.741 87.000 L 228.833 87.000 228.833 71.917 L 228.833 56.833 230.750 56.833 L 232.667 56.833 232.667 62.514 L 232.667 68.195 233.482 67.597 C 235.692 65.974,238.427 65.519,241.143 66.322 L 241.703 66.487 241.587 65.702 C 241.152 62.755,239.723 58.460,237.999 54.917 C 230.218 38.928,212.592 29.607,194.991 32.171 M203.353 56.744 C 204.121 56.878,205.162 57.130,205.667 57.304 C 206.171 57.478,206.640 57.630,206.709 57.641 C 206.779 57.653,207.229 57.861,207.709 58.104 C 219.479 64.053,219.325 80.622,207.447 86.262 C 203.072 88.340,197.086 88.094,193.156 85.676 C 192.701 85.396,192.293 85.167,192.249 85.167 C 191.891 85.167,188.897 82.213,188.042 81.015 C 185.769 77.833,184.536 71.864,185.561 69.000 C 185.611 68.862,185.685 68.525,185.727 68.250 C 186.548 62.845,192.330 57.778,199.000 56.618 C 199.941 56.454,202.043 56.515,203.353 56.744 M223.833 71.917 L 223.833 87.000 221.917 87.000 L 220.000 87.000 220.000 71.917 L 220.000 56.833 221.917 56.833 L 223.833 56.833 223.833 71.917 M154.458 66.284 C 154.665 66.324,155.002 66.324,155.208 66.284 C 155.415 66.245,155.246 66.212,154.833 66.212 C 154.421 66.212,154.252 66.245,154.458 66.284 M154.542 69.782 C 154.702 69.823,154.965 69.823,155.125 69.782 C 155.285 69.740,155.154 69.705,154.833 69.705 C 154.512 69.705,154.381 69.740,154.542 69.782 M338.417 72.499 C 326.936 73.482,316.093 76.804,303.917 83.069 C 298.264 85.977,293.456 88.929,286.877 93.529 C 269.793 105.476,248.873 117.289,237.511 121.405 C 237.184 121.523,235.979 121.975,234.833 122.409 C 224.686 126.251,215.838 128.415,205.833 129.502 C 201.316 129.993,192.792 130.035,189.083 129.585 C 188.717 129.540,187.442 129.387,186.250 129.244 C 172.948 127.651,159.462 122.688,146.083 114.462 C 143.608 112.940,140.505 110.860,135.798 107.567 C 127.940 102.070,118.160 95.820,112.827 92.889 C 112.326 92.614,111.317 92.050,110.583 91.635 C 109.850 91.221,108.575 90.522,107.750 90.083 C 106.925 89.643,106.175 89.226,106.083 89.156 C 105.853 88.980,96.178 84.144,94.792 83.513 C 94.173 83.231,93.160 82.767,92.542 82.482 C 88.927 80.817,79.299 76.645,79.231 76.713 C 79.203 76.741,79.571 77.020,80.048 77.332 C 80.526 77.644,80.992 77.964,81.083 78.042 C 81.175 78.121,81.962 78.682,82.833 79.288 C 90.286 84.480,94.433 87.567,100.570 92.491 C 105.937 96.796,111.701 102.051,119.583 109.824 C 122.425 112.626,125.612 115.695,126.667 116.644 C 127.721 117.593,128.846 118.610,129.167 118.904 C 134.971 124.224,145.199 131.435,153.000 135.707 C 182.859 152.060,215.603 152.949,250.250 138.347 C 255.452 136.154,263.818 132.032,266.878 130.154 C 267.314 129.886,267.704 129.667,267.744 129.667 C 267.969 129.667,273.589 126.285,277.250 123.947 C 287.454 117.431,298.587 109.014,308.583 100.258 C 335.115 77.018,359.860 75.060,390.467 93.778 C 394.592 96.301,398.568 98.704,398.750 98.785 C 398.842 98.825,398.729 98.696,398.500 98.496 C 397.891 97.966,394.714 95.157,392.680 93.349 C 378.261 80.532,366.370 74.628,351.167 72.739 C 348.724 72.435,340.885 72.288,338.417 72.499 M351.917 75.137 C 353.200 75.323,355.000 75.627,355.917 75.813 C 356.833 75.998,357.771 76.188,358.000 76.233 C 360.888 76.804,367.309 79.094,370.708 80.765 C 371.510 81.159,372.168 81.430,372.169 81.366 C 372.171 81.302,372.227 81.330,372.294 81.428 C 372.362 81.526,373.204 82.028,374.167 82.543 C 376.484 83.783,376.859 84.095,375.333 83.515 C 372.421 82.409,368.167 81.082,368.167 81.281 C 368.167 81.332,368.073 81.299,367.958 81.208 C 366.872 80.339,357.344 79.000,352.250 79.000 C 336.548 79.000,322.915 84.849,307.583 98.165 C 302.722 102.387,297.304 106.836,292.958 110.176 C 292.431 110.581,292.000 110.970,292.000 111.039 C 292.000 111.109,291.927 111.167,291.837 111.167 C 291.647 111.167,286.443 114.997,286.361 115.198 C 286.331 115.272,286.236 115.333,286.150 115.333 C 286.065 115.333,284.748 116.205,283.223 117.271 C 281.699 118.337,279.581 119.775,278.517 120.466 C 277.454 121.158,276.558 121.786,276.528 121.862 C 276.497 121.938,276.402 122.000,276.315 122.000 C 276.113 122.000,273.934 123.364,273.861 123.536 C 273.831 123.608,273.744 123.667,273.669 123.667 C 273.594 123.667,272.231 124.442,270.641 125.391 C 252.638 136.126,232.572 143.679,217.417 145.423 C 217.142 145.455,215.942 145.594,214.750 145.733 C 185.447 149.140,157.694 140.078,132.667 118.932 C 128.675 115.559,127.735 114.679,120.083 107.157 C 114.517 101.684,109.803 97.288,109.401 97.196 C 109.272 97.166,109.167 97.080,109.167 97.004 C 109.167 96.778,103.871 92.248,99.939 89.111 C 98.943 88.317,98.156 87.667,98.189 87.668 C 98.223 87.668,100.050 88.593,102.250 89.722 C 111.513 94.479,119.867 99.470,129.885 106.233 C 132.342 107.893,134.480 109.325,134.635 109.417 C 134.790 109.508,134.954 109.629,135.000 109.686 C 135.264 110.010,142.490 114.944,142.964 115.123 C 143.121 115.183,143.352 115.332,143.476 115.454 C 144.328 116.297,153.508 121.352,157.518 123.188 C 166.832 127.450,177.468 130.600,185.250 131.400 C 185.708 131.447,186.646 131.562,187.333 131.654 C 196.707 132.922,210.135 131.900,221.006 129.092 C 222.607 128.679,224.104 128.298,224.333 128.245 C 239.476 124.783,263.114 112.594,288.333 95.243 C 307.136 82.307,321.214 76.534,338.250 74.774 C 340.286 74.563,349.673 74.813,351.917 75.137 "
       stroke="none"
       fill="#64daa3"
       fill-rule="evenodd" />
    <path
       id="path3"
       d="M192.792 0.118 C 192.998 0.157,193.335 0.157,193.542 0.118 C 193.748 0.078,193.579 0.045,193.167 0.045 C 192.754 0.045,192.585 0.078,192.792 0.118 M201.542 0.115 C 201.702 0.157,201.965 0.157,202.125 0.115 C 202.285 0.073,202.154 0.039,201.833 0.039 C 201.512 0.039,201.381 0.073,201.542 0.115 M189.960 0.285 C 190.168 0.324,190.468 0.323,190.627 0.281 C 190.786 0.239,190.617 0.207,190.250 0.209 C 189.883 0.211,189.753 0.245,189.960 0.285 M187.708 0.448 C 187.869 0.490,188.131 0.490,188.292 0.448 C 188.452 0.406,188.321 0.372,188.000 0.372 C 187.679 0.372,187.548 0.406,187.708 0.448 M205.958 0.451 C 206.165 0.491,206.502 0.491,206.708 0.451 C 206.915 0.411,206.746 0.379,206.333 0.379 C 205.921 0.379,205.752 0.411,205.958 0.451 M199.121 18.954 C 199.417 18.990,199.942 18.991,200.288 18.955 C 200.634 18.919,200.392 18.889,199.750 18.888 C 199.108 18.887,198.825 18.917,199.121 18.954 M205.788 18.954 C 206.084 18.990,206.609 18.991,206.955 18.955 C 207.300 18.919,207.058 18.889,206.417 18.888 C 205.775 18.887,205.492 18.917,205.788 18.954 M196.208 19.115 C 196.369 19.157,196.631 19.157,196.792 19.115 C 196.952 19.073,196.821 19.039,196.500 19.039 C 196.179 19.039,196.048 19.073,196.208 19.115 M212.875 19.448 C 213.035 19.490,213.298 19.490,213.458 19.448 C 213.619 19.406,213.487 19.372,213.167 19.372 C 212.846 19.372,212.715 19.406,212.875 19.448 M270.667 29.552 C 270.667 29.581,270.910 29.825,271.208 30.094 L 271.750 30.583 271.260 30.042 C 270.804 29.537,270.667 29.423,270.667 29.552 M272.167 30.885 C 272.167 30.914,272.410 31.158,272.708 31.427 L 273.250 31.917 272.760 31.375 C 272.304 30.870,272.167 30.757,272.167 30.885 M199.716 31.791 C 200.431 31.822,201.556 31.822,202.216 31.790 C 202.876 31.759,202.292 31.733,200.917 31.733 C 199.542 31.734,199.001 31.759,199.716 31.791 M274.583 33.167 C 274.941 33.533,275.272 33.833,275.318 33.833 C 275.363 33.833,275.108 33.533,274.750 33.167 C 274.392 32.800,274.062 32.500,274.016 32.500 C 273.970 32.500,274.225 32.800,274.583 33.167 M110.436 33.166 C 109.644 33.765,109.477 33.936,109.917 33.697 C 110.299 33.490,111.292 32.679,111.167 32.677 C 111.121 32.677,110.792 32.896,110.436 33.166 M281.083 39.500 C 283.282 41.700,285.118 43.500,285.164 43.500 C 285.210 43.500,283.449 41.700,281.250 39.500 C 279.051 37.300,277.215 35.500,277.169 35.500 C 277.123 35.500,278.885 37.300,281.083 39.500 M230.083 43.833 C 230.628 44.383,231.110 44.833,231.156 44.833 C 231.202 44.833,230.794 44.383,230.250 43.833 C 229.706 43.283,229.223 42.833,229.177 42.833 C 229.131 42.833,229.539 43.283,230.083 43.833 M286.993 45.208 C 287.402 45.644,287.758 46.000,287.785 46.000 C 287.910 46.000,287.778 45.850,287.042 45.160 L 286.250 44.417 286.993 45.208 M170.158 45.292 L 169.583 45.917 170.208 45.342 C 170.552 45.026,170.833 44.745,170.833 44.717 C 170.833 44.590,170.692 44.710,170.158 45.292 M289.583 47.667 C 289.941 48.033,290.272 48.333,290.318 48.333 C 290.363 48.333,290.108 48.033,289.750 47.667 C 289.392 47.300,289.062 47.000,289.016 47.000 C 288.970 47.000,289.225 47.300,289.583 47.667 M167.906 47.945 C 167.650 48.282,167.525 48.504,167.629 48.440 C 167.842 48.308,168.564 47.333,168.448 47.333 C 168.407 47.333,168.163 47.609,167.906 47.945 M290.833 48.719 C 290.833 48.748,291.077 48.991,291.375 49.260 L 291.917 49.750 291.427 49.208 C 290.971 48.703,290.833 48.590,290.833 48.719 M89.406 50.208 L 88.917 50.750 89.458 50.260 C 89.756 49.991,90.000 49.748,90.000 49.719 C 90.000 49.590,89.862 49.703,89.406 50.208 M1.606 50.130 C 1.554 50.214,1.753 50.500,2.047 50.766 L 2.582 51.250 2.166 50.778 C 1.937 50.519,1.775 50.269,1.806 50.223 C 1.836 50.177,1.825 50.103,1.781 50.058 C 1.736 50.014,1.658 50.046,1.606 50.130 M2.833 51.385 C 2.833 51.414,3.077 51.658,3.375 51.927 L 3.917 52.417 3.427 51.875 C 2.971 51.370,2.833 51.257,2.833 51.385 M4.167 52.552 C 4.167 52.581,4.410 52.825,4.708 53.094 L 5.250 53.583 4.760 53.042 C 4.304 52.537,4.167 52.423,4.167 52.552 M5.667 53.885 C 5.667 53.914,5.910 54.158,6.208 54.427 L 6.750 54.917 6.260 54.375 C 5.804 53.870,5.667 53.757,5.667 53.885 M7.000 55.052 C 7.000 55.081,7.244 55.325,7.542 55.594 L 8.083 56.083 7.594 55.542 C 7.138 55.037,7.000 54.923,7.000 55.052 M117.410 57.375 C 117.366 57.490,117.350 64.221,117.375 72.333 L 117.419 87.083 117.459 72.212 L 117.500 57.340 121.125 57.291 L 124.750 57.243 121.120 57.205 C 118.340 57.176,117.471 57.215,117.410 57.375 M121.401 60.896 C 121.353 61.022,121.342 61.491,121.377 61.938 L 121.440 62.750 121.470 61.803 C 121.497 60.965,121.543 60.848,121.875 60.784 L 122.250 60.712 121.870 60.689 C 121.661 60.677,121.450 60.770,121.401 60.896 M144.077 66.708 C 144.033 66.823,144.017 71.454,144.041 77.000 L 144.086 87.083 144.126 76.881 L 144.167 66.678 145.875 66.624 L 147.583 66.570 145.870 66.535 C 144.626 66.510,144.134 66.557,144.077 66.708 M42.542 67.282 C 42.702 67.323,42.965 67.323,43.125 67.282 C 43.285 67.240,43.154 67.205,42.833 67.205 C 42.512 67.205,42.381 67.240,42.542 67.282 M44.958 67.454 C 45.256 67.491,45.744 67.491,46.042 67.454 C 46.340 67.417,46.096 67.387,45.500 67.387 C 44.904 67.387,44.660 67.417,44.958 67.454 M49.708 67.453 C 49.960 67.491,50.373 67.491,50.625 67.453 C 50.877 67.415,50.671 67.383,50.167 67.383 C 49.663 67.383,49.456 67.415,49.708 67.453 M159.542 69.917 C 159.544 70.283,159.578 70.414,159.618 70.206 C 159.658 69.999,159.656 69.699,159.615 69.540 C 159.573 69.380,159.540 69.550,159.542 69.917 M264.500 70.885 C 264.500 70.914,264.744 71.158,265.042 71.427 L 265.583 71.917 265.094 71.375 C 264.638 70.870,264.500 70.757,264.500 70.885 M343.121 72.287 C 343.417 72.324,343.942 72.324,344.288 72.288 C 344.634 72.252,344.392 72.222,343.750 72.221 C 343.108 72.221,342.825 72.250,343.121 72.287 M339.127 72.451 C 339.334 72.491,339.634 72.490,339.794 72.448 C 339.953 72.406,339.783 72.374,339.417 72.375 C 339.050 72.377,338.920 72.411,339.127 72.451 M347.292 72.451 C 347.498 72.491,347.835 72.491,348.042 72.451 C 348.248 72.411,348.079 72.379,347.667 72.379 C 347.254 72.379,347.085 72.411,347.292 72.451 M242.742 80.667 C 242.742 84.196,242.764 85.640,242.791 83.875 C 242.818 82.110,242.818 79.223,242.791 77.458 C 242.764 75.694,242.742 77.137,242.742 80.667 M242.205 75.000 C 242.205 75.321,242.240 75.452,242.282 75.292 C 242.323 75.131,242.323 74.869,242.282 74.708 C 242.240 74.548,242.205 74.679,242.205 75.000 M159.539 76.167 C 159.539 76.487,159.573 76.619,159.615 76.458 C 159.657 76.298,159.657 76.035,159.615 75.875 C 159.573 75.715,159.539 75.846,159.539 76.167 M250.053 76.667 C 250.053 77.262,250.084 77.506,250.121 77.208 C 250.158 76.910,250.158 76.423,250.121 76.125 C 250.084 75.827,250.053 76.071,250.053 76.667 M51.042 76.282 C 51.202 76.323,51.465 76.323,51.625 76.282 C 51.785 76.240,51.654 76.205,51.333 76.205 C 51.012 76.205,50.881 76.240,51.042 76.282 M54.958 76.458 C 55.806 76.488,57.194 76.488,58.042 76.458 C 58.890 76.427,58.196 76.403,56.500 76.403 C 54.804 76.403,54.110 76.427,54.958 76.458 M242.039 77.167 C 242.039 77.487,242.073 77.619,242.115 77.458 C 242.157 77.298,242.157 77.035,242.115 76.875 C 242.073 76.715,242.039 76.846,242.039 77.167 M371.500 78.667 C 371.821 78.842,372.158 78.986,372.250 78.986 C 372.342 78.986,372.154 78.842,371.833 78.667 C 371.512 78.491,371.175 78.347,371.083 78.347 C 370.992 78.347,371.179 78.491,371.500 78.667 M351.458 81.290 C 351.940 81.323,352.727 81.323,353.208 81.290 C 353.690 81.256,353.296 81.228,352.333 81.228 C 351.371 81.228,350.977 81.256,351.458 81.290 M122.738 83.554 C 122.692 83.675,122.679 84.518,122.709 85.429 L 122.764 87.083 122.798 85.303 L 122.833 83.522 123.292 83.453 L 123.750 83.383 123.286 83.358 C 123.031 83.345,122.785 83.432,122.738 83.554 M99.167 85.582 C 99.167 85.695,100.520 86.368,100.596 86.293 C 100.631 86.258,100.323 86.066,99.913 85.867 C 99.503 85.668,99.167 85.539,99.167 85.582 M101.833 86.908 C 101.833 86.954,102.058 87.108,102.333 87.250 C 102.608 87.392,102.833 87.471,102.833 87.425 C 102.833 87.379,102.608 87.226,102.333 87.083 C 102.058 86.941,101.833 86.862,101.833 86.908 M259.958 87.454 C 260.256 87.491,260.744 87.491,261.042 87.454 C 261.340 87.417,261.096 87.387,260.500 87.387 C 259.904 87.387,259.660 87.417,259.958 87.454 M393.667 94.250 C 393.978 94.571,394.270 94.833,394.315 94.833 C 394.361 94.833,394.144 94.571,393.833 94.250 C 393.522 93.929,393.230 93.667,393.185 93.667 C 393.139 93.667,393.356 93.929,393.667 94.250 M396.500 96.750 C 396.811 97.071,397.103 97.333,397.149 97.333 C 397.195 97.333,396.978 97.071,396.667 96.750 C 396.356 96.429,396.064 96.167,396.018 96.167 C 395.972 96.167,396.189 96.429,396.500 96.750 M310.573 98.542 L 310.083 99.083 310.625 98.594 C 311.130 98.138,311.243 98.000,311.115 98.000 C 311.086 98.000,310.842 98.244,310.573 98.542 M398.500 98.773 C 398.500 98.802,398.744 98.949,399.042 99.102 C 399.577 99.376,399.580 99.375,399.291 99.051 C 399.050 98.780,398.500 98.587,398.500 98.773 M108.000 98.885 C 108.000 98.914,108.244 99.158,108.542 99.427 L 109.083 99.917 108.594 99.375 C 108.138 98.870,108.000 98.757,108.000 98.885 M110.167 100.917 C 110.478 101.237,110.770 101.500,110.815 101.500 C 110.861 101.500,110.644 101.237,110.333 100.917 C 110.022 100.596,109.730 100.333,109.685 100.333 C 109.639 100.333,109.856 100.596,110.167 100.917 M170.000 100.719 C 170.000 100.748,170.244 100.991,170.542 101.260 L 171.083 101.750 170.594 101.208 C 170.138 100.703,170.000 100.590,170.000 100.719 M306.740 101.875 L 306.250 102.417 306.792 101.927 C 307.297 101.471,307.410 101.333,307.281 101.333 C 307.252 101.333,307.009 101.577,306.740 101.875 M112.250 102.833 C 112.794 103.383,113.277 103.833,113.323 103.833 C 113.369 103.833,112.961 103.383,112.417 102.833 C 111.872 102.283,111.390 101.833,111.344 101.833 C 111.298 101.833,111.706 102.283,112.250 102.833 M172.167 102.917 C 172.757 103.513,173.278 104.000,173.324 104.000 C 173.370 104.000,172.924 103.513,172.333 102.917 C 171.743 102.321,171.222 101.833,171.176 101.833 C 171.130 101.833,171.576 102.321,172.167 102.917 M115.583 106.000 C 116.405 106.825,117.114 107.500,117.160 107.500 C 117.206 107.500,116.571 106.825,115.750 106.000 C 114.929 105.175,114.219 104.500,114.174 104.500 C 114.128 104.500,114.762 105.175,115.583 106.000 M195.375 114.115 C 195.535 114.157,195.798 114.157,195.958 114.115 C 196.119 114.073,195.987 114.039,195.667 114.039 C 195.346 114.039,195.215 114.073,195.375 114.115 M124.826 115.042 C 125.235 115.477,125.591 115.833,125.618 115.833 C 125.743 115.833,125.611 115.684,124.875 114.993 L 124.083 114.250 124.826 115.042 M200.131 114.456 C 200.615 114.490,201.365 114.490,201.797 114.456 C 202.230 114.421,201.833 114.394,200.917 114.394 C 200.000 114.395,199.646 114.423,200.131 114.456 M251.000 115.167 C 250.679 115.342,250.477 115.489,250.550 115.493 C 250.727 115.502,251.667 115.013,251.667 114.912 C 251.667 114.803,251.657 114.807,251.000 115.167 M127.167 117.250 C 127.478 117.571,127.770 117.833,127.815 117.833 C 127.861 117.833,127.644 117.571,127.333 117.250 C 127.022 116.929,126.730 116.667,126.685 116.667 C 126.639 116.667,126.856 116.929,127.167 117.250 M128.654 118.555 C 129.079 119.023,129.170 119.080,129.161 118.875 C 129.159 118.806,128.952 118.606,128.703 118.430 L 128.250 118.110 128.654 118.555 M206.042 129.448 C 206.202 129.490,206.465 129.490,206.625 129.448 C 206.785 129.406,206.654 129.372,206.333 129.372 C 206.012 129.372,205.881 129.406,206.042 129.448 M191.627 129.785 C 191.834 129.824,192.134 129.823,192.294 129.781 C 192.453 129.739,192.283 129.707,191.917 129.709 C 191.550 129.711,191.420 129.745,191.627 129.785 M201.794 129.785 C 202.001 129.824,202.301 129.823,202.460 129.781 C 202.620 129.739,202.450 129.707,202.083 129.709 C 201.717 129.711,201.586 129.745,201.794 129.785 M195.875 129.956 C 196.402 129.990,197.265 129.990,197.792 129.956 C 198.319 129.923,197.887 129.896,196.833 129.896 C 195.779 129.896,195.348 129.923,195.875 129.956 M262.625 132.429 C 262.002 132.767,262.040 132.907,262.667 132.583 C 262.942 132.441,263.167 132.289,263.167 132.246 C 263.167 132.138,263.149 132.145,262.625 132.429 M194.458 148.451 C 194.665 148.491,195.002 148.491,195.208 148.451 C 195.415 148.411,195.246 148.379,194.833 148.379 C 194.421 148.379,194.252 148.411,194.458 148.451 M210.377 148.453 C 210.631 148.491,211.006 148.490,211.211 148.451 C 211.416 148.411,211.208 148.380,210.750 148.381 C 210.292 148.382,210.124 148.415,210.377 148.453 M196.708 148.615 C 196.869 148.657,197.131 148.657,197.292 148.615 C 197.452 148.573,197.321 148.539,197.000 148.539 C 196.679 148.539,196.548 148.573,196.708 148.615 M208.127 148.618 C 208.334 148.658,208.634 148.656,208.794 148.615 C 208.953 148.573,208.783 148.540,208.417 148.542 C 208.050 148.544,207.920 148.578,208.127 148.618 M201.542 148.790 C 202.160 148.822,203.173 148.822,203.792 148.790 C 204.410 148.758,203.904 148.732,202.667 148.732 C 201.429 148.732,200.923 148.758,201.542 148.790 "
       stroke="none"
       fill="#8fd3b2"
       fill-rule="evenodd" />
    <path
       id="path4"
       d="M191.208 0.119 C 191.460 0.158,191.873 0.158,192.125 0.119 C 192.377 0.081,192.171 0.050,191.667 0.050 C 191.162 0.050,190.956 0.081,191.208 0.119 M202.711 0.120 C 202.964 0.158,203.339 0.157,203.544 0.117 C 203.749 0.078,203.542 0.046,203.083 0.048 C 202.625 0.049,202.457 0.081,202.711 0.120 M201.868 18.957 C 202.482 18.989,203.532 18.989,204.201 18.957 C 204.870 18.926,204.367 18.899,203.083 18.899 C 201.800 18.899,201.253 18.925,201.868 18.957 M197.377 19.120 C 197.631 19.158,198.006 19.157,198.211 19.117 C 198.416 19.078,198.208 19.046,197.750 19.048 C 197.292 19.049,197.124 19.081,197.377 19.120 M208.044 19.120 C 208.297 19.158,208.672 19.157,208.877 19.117 C 209.082 19.078,208.875 19.046,208.417 19.048 C 207.958 19.049,207.791 19.081,208.044 19.120 M195.208 19.282 C 195.369 19.323,195.631 19.323,195.792 19.282 C 195.952 19.240,195.821 19.205,195.500 19.205 C 195.179 19.205,195.048 19.240,195.208 19.282 M210.375 19.282 C 210.535 19.323,210.798 19.323,210.958 19.282 C 211.119 19.240,210.987 19.205,210.667 19.205 C 210.346 19.205,210.215 19.240,210.375 19.282 M271.500 30.250 C 271.811 30.571,272.103 30.833,272.149 30.833 C 272.195 30.833,271.978 30.571,271.667 30.250 C 271.356 29.929,271.064 29.667,271.018 29.667 C 270.972 29.667,271.189 29.929,271.500 30.250 M273.333 31.917 C 273.644 32.237,273.936 32.500,273.982 32.500 C 274.028 32.500,273.811 32.237,273.500 31.917 C 273.189 31.596,272.897 31.333,272.851 31.333 C 272.805 31.333,273.022 31.596,273.333 31.917 M197.458 31.784 C 197.665 31.824,198.002 31.824,198.208 31.784 C 198.415 31.745,198.246 31.712,197.833 31.712 C 197.421 31.712,197.252 31.745,197.458 31.784 M203.625 31.784 C 203.831 31.824,204.169 31.824,204.375 31.784 C 204.581 31.745,204.412 31.712,204.000 31.712 C 203.588 31.712,203.419 31.745,203.625 31.784 M275.833 34.250 C 276.331 34.754,276.776 35.167,276.822 35.167 C 276.868 35.167,276.498 34.754,276.000 34.250 C 275.502 33.746,275.057 33.333,275.011 33.333 C 274.966 33.333,275.335 33.746,275.833 34.250 M228.167 41.885 C 228.167 41.914,228.410 42.158,228.708 42.427 L 229.250 42.917 228.760 42.375 C 228.304 41.870,228.167 41.757,228.167 41.885 M171.500 43.750 C 170.817 44.438,170.296 45.000,170.342 45.000 C 170.388 45.000,170.984 44.438,171.667 43.750 C 172.350 43.063,172.871 42.500,172.825 42.500 C 172.779 42.500,172.183 43.063,171.500 43.750 M285.250 43.500 C 285.794 44.050,286.277 44.500,286.323 44.500 C 286.369 44.500,285.961 44.050,285.417 43.500 C 284.872 42.950,284.390 42.500,284.344 42.500 C 284.298 42.500,284.706 42.950,285.250 43.500 M231.667 45.417 C 231.978 45.737,232.270 46.000,232.315 46.000 C 232.361 46.000,232.144 45.737,231.833 45.417 C 231.522 45.096,231.230 44.833,231.185 44.833 C 231.139 44.833,231.356 45.096,231.667 45.417 M288.250 46.333 C 288.608 46.700,288.938 47.000,288.984 47.000 C 289.030 47.000,288.775 46.700,288.417 46.333 C 288.059 45.967,287.728 45.667,287.682 45.667 C 287.637 45.667,287.892 45.967,288.250 46.333 M290.036 47.917 C 290.468 48.366,290.847 48.700,290.878 48.659 C 290.909 48.617,290.555 48.250,290.092 47.842 L 289.250 47.100 290.036 47.917 M1.056 49.745 C 1.056 49.880,1.287 50.199,1.569 50.454 L 2.083 50.917 1.609 50.391 C 1.348 50.101,1.148 49.814,1.164 49.752 C 1.181 49.690,1.163 49.608,1.125 49.569 C 1.087 49.531,1.056 49.610,1.056 49.745 M292.833 50.385 C 292.833 50.414,293.077 50.658,293.375 50.927 L 293.917 51.417 293.427 50.875 C 292.971 50.370,292.833 50.257,292.833 50.385 M294.000 51.385 C 294.000 51.414,294.244 51.658,294.542 51.927 L 295.083 52.417 294.594 51.875 C 294.138 51.370,294.000 51.257,294.000 51.385 M122.708 60.788 C 123.052 60.824,123.615 60.824,123.958 60.788 C 124.302 60.752,124.021 60.723,123.333 60.723 C 122.646 60.723,122.365 60.752,122.708 60.788 M121.412 74.583 C 121.412 81.183,121.433 83.859,121.458 80.529 C 121.484 77.200,121.484 71.800,121.458 68.529 C 121.433 65.259,121.412 67.983,121.412 74.583 M132.500 63.719 C 132.500 63.748,132.744 63.991,133.042 64.260 L 133.583 64.750 133.094 64.208 C 132.638 63.703,132.500 63.590,132.500 63.719 M260.294 65.951 C 260.501 65.991,260.801 65.990,260.960 65.948 C 261.120 65.906,260.950 65.874,260.583 65.875 C 260.217 65.877,260.086 65.911,260.294 65.951 M53.375 67.115 C 53.535 67.157,53.798 67.157,53.958 67.115 C 54.119 67.073,53.987 67.039,53.667 67.039 C 53.346 67.039,53.215 67.073,53.375 67.115 M43.627 67.285 C 43.834 67.324,44.134 67.323,44.294 67.281 C 44.453 67.239,44.283 67.207,43.917 67.209 C 43.550 67.211,43.420 67.245,43.627 67.285 M51.458 67.284 C 51.665 67.324,52.002 67.324,52.208 67.284 C 52.415 67.245,52.246 67.212,51.833 67.212 C 51.421 67.212,51.252 67.245,51.458 67.284 M47.213 67.456 C 47.652 67.490,48.327 67.490,48.713 67.455 C 49.100 67.420,48.742 67.392,47.917 67.392 C 47.092 67.393,46.775 67.422,47.213 67.456 M159.399 73.083 C 159.399 74.367,159.426 74.870,159.457 74.201 C 159.489 73.532,159.489 72.482,159.457 71.868 C 159.425 71.253,159.399 71.800,159.399 73.083 M140.221 72.083 C 140.222 72.725,140.252 72.967,140.288 72.621 C 140.324 72.275,140.324 71.750,140.287 71.455 C 140.250 71.159,140.221 71.442,140.221 72.083 M321.222 72.263 C 321.222 72.393,321.259 72.463,321.304 72.418 C 321.349 72.373,321.488 72.421,321.614 72.525 C 321.739 72.629,321.870 72.685,321.904 72.649 C 321.939 72.613,321.800 72.458,321.595 72.305 C 321.292 72.079,321.222 72.071,321.222 72.263 M340.796 72.289 C 341.188 72.324,341.788 72.324,342.129 72.288 C 342.471 72.252,342.150 72.223,341.417 72.224 C 340.683 72.224,340.404 72.254,340.796 72.289 M345.288 72.287 C 345.584 72.324,346.109 72.324,346.455 72.288 C 346.800 72.252,346.558 72.222,345.917 72.221 C 345.275 72.221,344.992 72.250,345.288 72.287 M337.960 72.451 C 338.168 72.491,338.468 72.490,338.627 72.448 C 338.786 72.406,338.617 72.374,338.250 72.375 C 337.883 72.377,337.753 72.411,337.960 72.451 M348.627 72.451 C 348.834 72.491,349.134 72.490,349.294 72.448 C 349.453 72.406,349.283 72.374,348.917 72.375 C 348.550 72.377,348.420 72.411,348.627 72.451 M52.128 76.454 C 52.428 76.491,52.878 76.490,53.128 76.452 C 53.378 76.414,53.133 76.384,52.583 76.385 C 52.033 76.386,51.828 76.417,52.128 76.454 M59.961 76.454 C 60.261 76.491,60.711 76.490,60.961 76.452 C 61.212 76.414,60.967 76.384,60.417 76.385 C 59.867 76.386,59.662 76.417,59.961 76.454 M289.539 81.333 C 289.539 81.654,289.573 81.785,289.615 81.625 C 289.657 81.465,289.657 81.202,289.615 81.042 C 289.573 80.881,289.539 81.012,289.539 81.333 M355.042 81.448 C 355.202 81.490,355.465 81.490,355.625 81.448 C 355.785 81.406,355.654 81.372,355.333 81.372 C 355.012 81.372,354.881 81.406,355.042 81.448 M346.875 81.615 C 347.035 81.657,347.298 81.657,347.458 81.615 C 347.619 81.573,347.488 81.539,347.167 81.539 C 346.846 81.539,346.715 81.573,346.875 81.615 M356.960 81.618 C 357.168 81.658,357.468 81.656,357.627 81.615 C 357.786 81.573,357.617 81.540,357.250 81.542 C 356.883 81.544,356.753 81.578,356.960 81.618 M276.208 83.458 C 277.560 83.486,279.773 83.486,281.125 83.458 C 282.477 83.430,281.371 83.407,278.667 83.407 C 275.962 83.407,274.856 83.430,276.208 83.458 M253.167 84.417 C 253.478 84.737,253.770 85.000,253.815 85.000 C 253.861 85.000,253.644 84.737,253.333 84.417 C 253.022 84.096,252.730 83.833,252.685 83.833 C 252.639 83.833,252.856 84.096,253.167 84.417 M389.500 90.385 C 389.500 90.414,389.744 90.658,390.042 90.927 L 390.583 91.417 390.094 90.875 C 389.638 90.370,389.500 90.257,389.500 90.385 M391.000 91.719 C 391.000 91.748,391.244 91.991,391.542 92.260 L 392.083 92.750 391.594 92.208 C 391.138 91.703,391.000 91.590,391.000 91.719 M396.500 96.552 C 396.500 96.581,396.744 96.825,397.042 97.094 L 397.583 97.583 397.094 97.042 C 396.638 96.537,396.500 96.423,396.500 96.552 M107.500 98.552 C 107.500 98.581,107.744 98.825,108.042 99.094 L 108.583 99.583 108.094 99.042 C 107.638 98.537,107.500 98.423,107.500 98.552 M399.407 99.427 C 399.585 99.559,399.806 99.667,399.899 99.667 C 400.169 99.667,399.701 99.274,399.377 99.229 C 399.116 99.192,399.120 99.215,399.407 99.427 M109.000 99.885 C 109.000 99.914,109.244 100.158,109.542 100.427 L 110.083 100.917 109.594 100.375 C 109.138 99.870,109.000 99.757,109.000 99.885 M231.244 101.208 L 230.417 102.083 231.292 101.256 C 231.773 100.801,232.167 100.408,232.167 100.381 C 232.167 100.257,232.012 100.395,231.244 101.208 M111.417 102.167 C 111.775 102.533,112.105 102.833,112.151 102.833 C 112.197 102.833,111.941 102.533,111.583 102.167 C 111.225 101.800,110.895 101.500,110.849 101.500 C 110.803 101.500,111.059 101.800,111.417 102.167 M171.493 102.375 C 172.184 103.111,172.333 103.243,172.333 103.118 C 172.333 103.091,171.977 102.735,171.542 102.326 L 170.750 101.583 171.493 102.375 M228.909 103.542 L 228.250 104.250 228.958 103.591 C 229.617 102.978,229.743 102.833,229.617 102.833 C 229.590 102.833,229.271 103.152,228.909 103.542 M113.917 104.500 C 114.275 104.867,114.605 105.167,114.651 105.167 C 114.697 105.167,114.441 104.867,114.083 104.500 C 113.725 104.133,113.395 103.833,113.349 103.833 C 113.303 103.833,113.559 104.133,113.917 104.500 M121.167 111.583 C 123.136 113.554,124.785 115.167,124.830 115.167 C 124.876 115.167,123.303 113.554,121.333 111.583 C 119.364 109.612,117.715 108.000,117.670 108.000 C 117.624 108.000,119.197 109.612,121.167 111.583 M198.042 114.453 C 198.294 114.491,198.706 114.491,198.958 114.453 C 199.210 114.415,199.004 114.383,198.500 114.383 C 197.996 114.383,197.790 114.415,198.042 114.453 M202.877 114.453 C 203.131 114.491,203.506 114.490,203.711 114.451 C 203.916 114.411,203.708 114.380,203.250 114.381 C 202.792 114.382,202.624 114.415,202.877 114.453 M126.250 116.500 C 126.608 116.867,126.938 117.167,126.984 117.167 C 127.030 117.167,126.775 116.867,126.417 116.500 C 126.059 116.133,125.728 115.833,125.682 115.833 C 125.637 115.833,125.892 116.133,126.250 116.500 M190.211 129.620 C 190.464 129.658,190.839 129.657,191.044 129.617 C 191.249 129.578,191.042 129.546,190.583 129.548 C 190.125 129.549,189.957 129.581,190.211 129.620 M203.125 129.618 C 203.331 129.657,203.669 129.657,203.875 129.618 C 204.081 129.578,203.912 129.545,203.500 129.545 C 203.088 129.545,202.919 129.578,203.125 129.618 M192.958 129.787 C 193.256 129.824,193.744 129.824,194.042 129.787 C 194.340 129.750,194.096 129.720,193.500 129.720 C 192.904 129.720,192.660 129.750,192.958 129.787 M200.377 129.786 C 200.631 129.825,201.006 129.824,201.211 129.784 C 201.416 129.744,201.208 129.713,200.750 129.714 C 200.292 129.716,200.124 129.748,200.377 129.786 M213.375 148.282 C 213.535 148.323,213.798 148.323,213.958 148.282 C 214.119 148.240,213.987 148.205,213.667 148.205 C 213.346 148.205,213.215 148.240,213.375 148.282 M195.708 148.615 C 195.869 148.657,196.131 148.657,196.292 148.615 C 196.452 148.573,196.321 148.539,196.000 148.539 C 195.679 148.539,195.548 148.573,195.708 148.615 M209.208 148.615 C 209.369 148.657,209.631 148.657,209.792 148.615 C 209.952 148.573,209.821 148.539,209.500 148.539 C 209.179 148.539,209.048 148.573,209.208 148.615 M198.458 148.789 C 198.848 148.824,199.485 148.824,199.875 148.789 C 200.265 148.754,199.946 148.725,199.167 148.725 C 198.387 148.725,198.069 148.754,198.458 148.789 M205.458 148.789 C 205.848 148.824,206.485 148.824,206.875 148.789 C 207.265 148.754,206.946 148.725,206.167 148.725 C 205.387 148.725,205.069 148.754,205.458 148.789 "
       stroke="none"
       fill="#c9f0dd"
       fill-rule="evenodd" />
  </g>
</svg>
